<svg height="606" width="720" xmlns="http://www.w3.org/2000/svg">
<rect height="606" fill="#555" width="720"></rect>
<text fill="#7f7" font-family="Courier New" font-size="12" xml:space="preserve">
<tspan x="10" y="26">4 megabytes</tspan>
<tspan x="10" y="42">└─┬ parcelify@2.2.0 </tspan>
<tspan x="10" y="58">  ├── async@0.2.10 </tspan>
<tspan x="10" y="74">  ├─┬ glob@3.2.11 </tspan>
<tspan x="10" y="90">  │ └─┬ minimatch@0.3.0 </tspan>
<tspan x="10" y="106">  │   ├── lru-cache@2.7.3 </tspan>
<tspan x="10" y="122">  │   └── sigmund@1.0.1 </tspan>
<tspan x="10" y="138">  ├─┬ globwatcher@1.2.3 </tspan>
<tspan x="10" y="154">  │ ├── coffee-script@1.12.4 </tspan>
<tspan x="10" y="170">  │ └── q@1.5.0 </tspan>
<tspan x="10" y="186">  ├── inherits@2.0.3 </tspan>
<tspan x="10" y="202">  ├── minimist@0.0.8 </tspan>
<tspan x="10" y="218">  ├── mkdirp@0.3.5 </tspan>
<tspan x="10" y="234">  ├─┬ npmlog@0.0.6 </tspan>
<tspan x="10" y="250">  │ └── ansi@0.2.1 </tspan>
<tspan x="10" y="266">  ├─┬ parcel-map@3.0.1 </tspan>
<tspan x="10" y="282">  │ ├─┬ mothership@0.1.0 </tspan>
<tspan x="10" y="298">  │ │ └── find-parent-dir@0.2.1 </tspan>
<tspan x="10" y="314">  │ ├── nub@0.0.0 </tspan>
<tspan x="10" y="330">  │ └── shallow-copy@0.0.1 </tspan>
<tspan x="10" y="346">  ├── resolve@0.6.3 </tspan>
<tspan x="10" y="362">  ├─┬ shasum@1.0.2 </tspan>
<tspan x="10" y="378">  │ ├─┬ json-stable-stringify@0.0.1 </tspan>
<tspan x="10" y="394">  │ │ └── jsonify@0.0.0 </tspan>
<tspan x="10" y="410">  │ └── sha.js@2.4.8 </tspan>
<tspan x="10" y="426">  ├─┬ stream-combiner@0.2.2 </tspan>
<tspan x="10" y="442">  │ ├── duplexer@0.1.1 </tspan>
<tspan x="10" y="458">  │ └── through@2.3.8 </tspan>
<tspan x="10" y="474">  ├─┬ through2@0.6.5 </tspan>
<tspan x="10" y="490">  │ ├─┬ readable-stream@1.0.34 </tspan>
<tspan x="10" y="506">  │ │ ├── core-util-is@1.0.2 </tspan>
<tspan x="10" y="522">  │ │ ├── isarray@0.0.1 </tspan>
<tspan x="10" y="538">  │ │ └── string_decoder@0.10.31 </tspan>
<tspan x="10" y="554">  │ └── xtend@4.0.1 </tspan>
<tspan x="10" y="570">  ├── toposort@0.2.12 </tspan>
<tspan x="10" y="586">  └── underscore@1.6.0</tspan>
</text>
</svg>
